<?xml version="1.0" encoding="UTF-8"?>
<!DOCTYPE svg PUBLIC "-//W3C//DTD SVG 1.1//EN" "http://www.w3.org/Graphics/SVG/1.1/DTD/svg11.dtd">
<!-- Creator: CorelDRAW 2019 (64-Bit Evaluation Version) -->
<svg xmlns="http://www.w3.org/2000/svg" xml:space="preserve" width="191.393mm" height="72.5007mm" version="1.1" style="shape-rendering:geometricPrecision; text-rendering:geometricPrecision; image-rendering:optimizeQuality; fill-rule:evenodd; clip-rule:evenodd" viewBox="0 0 20371.13 7716.69" 
    xmlns:xlink="http://www.w3.org/1999/xlink">
    <defs>
        <style type="text/css">
            <![CDATA[
    .str0 {stroke:#332C2B;stroke-width:8.11;stroke-miterlimit:22.9256}
    .fil0 {fill:#757475}
   ]]>
        </style>
    </defs>
    <g id="Layer_x0020_1">
        <metadata id="CorelCorpID_0Corel-Layer"/>
        <path class="fil0 str0" d="M5676.8 2153c1.32,-267.62 80.55,-667.35 383.39,-686.37 344.29,-21.62 421.92,496.92 415.57,673.41 -28.89,802.53 24.43,1601 -47.16,2429.5 0,0 -614.94,1310.16 -614.94,1310.16 -377.69,521.53 -1022.82,299.66 -1176.77,219.9 -195.94,-101.51 -438.27,-415.85 -484.18,-559.56 -66.95,-209.6 -122.05,-1700.4 -130.58,-1971.16 -9.69,-307.27 12.09,-711.65 -198.36,-946.75 -156.28,-174.6 -396.27,-277.13 -614.29,-140.26 -393.22,246.87 -311,553.34 -319.88,951.53 -35.35,1584.19 61.08,1650.61 -82.95,2111.97 -101.2,324.17 -559.08,339.12 -658.18,-0.38 -126.65,-433.85 -107.85,-425.33 -145.41,-2111.58 -8.87,-398.11 73.33,-704.66 -319.88,-951.53 -218.01,-136.87 -458,-34.34 -614.29,140.26 -210.47,235.1 -218.52,640.12 -198.36,946.75 22.66,344.82 1.34,1696.28 -166.34,2031.98 -119.97,240.19 -475.03,234.48 -583.81,-7.55 -181.49,-403.85 -111.43,-1048.31 -51.14,-2629.41 12.91,-338.86 125.79,-746.66 414.85,-1060.35 175.07,-189.97 412.76,-330.21 725.82,-365.7 232.49,-26.36 874.9,-119.11 1264.43,694.67 351.37,-807.19 860.22,-751.34 1202.62,-727.67 275.78,19.06 522.58,155.96 707.29,341.06 253.84,254.38 490.02,664.59 483.56,1023 -20.03,1110.06 22.47,2169.55 75.8,2386.56 111.77,454.82 494.26,283.02 579.8,143.5 244.02,-398.04 150.52,-2665.91 153.4,-3245.97zm375.18 -1383.52l0 -402.97c173.72,0 314.56,180.41 314.56,402.97 0,222.56 -140.84,402.97 -314.56,402.97 -173.72,0 -314.56,-180.41 -314.56,-402.97 0,-222.56 140.84,-402.97 314.56,-402.97l0 402.97zm2049.99 844.97l-2692.35 6079.22 903.15 18.9 2261.02 -5332.68c671.37,0 637.25,-92.77 1059.54,136.92 379.8,206.58 433.46,879.41 272.84,1317.11 -140.21,382.05 -498.67,969.28 -941.21,1025.31 -193.12,24.44 -487.49,27.28 -958.68,7.91 0,0 -267.42,736.56 -267.42,736.56 245.61,53.6 629.71,22.18 1106.33,35.35 572.68,15.82 1101.23,-357.51 1451.01,-917.64 271.25,-434.38 436.11,-1277.62 356.07,-1843.12 -111.85,-790.4 -520.5,-1036.91 -825.08,-1157.65 -556.55,-220.63 -1161.55,-118.85 -1725.21,-106.19zm6689.13 1332.1c-291.58,670.4 -408.52,1672.18 271.75,2399.69 466.1,498.46 885.02,430.94 1441.87,430.94 0,0 265.48,-702.54 265.48,-702.54 -561.33,2.06 -1209.17,-86.48 -1385.31,-721.08 -56.15,-202.26 -126.09,-769.33 50.58,-1211.42 377.66,-945.05 1172.3,-917.27 2198.85,-908.79 0,0 324.49,-656.08 324.49,-656.08 -943.57,-101.4 -2402.35,-390.44 -3167.72,1369.3zm-3895.21 681.4l424.51 -992.2 424.51 -992.19 849.02 0 849.02 0 424.52 992.19 424.5 992.2 -424.5 992.2 -424.52 992.2 -849.02 0 -849.02 0 -424.51 -992.2 -424.51 -992.2zm1740.61 -1326.85c503.74,0 912.1,594.05 912.1,1326.85 0,732.8 -408.36,1326.85 -912.1,1326.85 -503.74,0 -912.1,-594.05 -912.1,-1326.85 0,-732.8 408.36,-1326.85 912.1,-1326.85zm6450.61 -518.14c-310.68,620.16 -651.61,1660.41 -976.42,2724.37 -216.21,708.25 -255.66,993.1 -358.63,1419.1 0,0 -1030.79,10.92 -1030.79,10.92 527.89,-1552.88 1164.19,-3735.8 1854.32,-4762.98 623.64,-928.21 1636.6,-1304.04 1792.5,-1128.37 0,0 -567.94,543.71 -986.49,1181.5 -53.54,81.59 -170.15,307.27 -294.49,555.46z"/>
    </g>
</svg>
